<svg xmlns="http://www.w3.org/2000/svg" height="100%" stroke-miterlimit="10" viewBox="0 0 24 24" width="100%" fill-rule="nonzero" stroke-linecap="round" stroke-linejoin="round" xmlns:v="https://vecta.io/nano"><path d="M10 5h4a2 2 0 1 0-4 0zM8.5 5a3.5 3.5 0 1 1 7 0h5.75a.75.75 0 1 1 0 1.5h-1.319l-1.172 12.111A3.75 3.75 0 0 1 15.026 22H8.974a3.75 3.75 0 0 1-3.733-3.389L4.069 6.5H2.75a.75.75 0 1 1 0-1.5H8.5zm2 4.75a.75.75 0 1 0-1.5 0v7.5a.75.75 0 1 0 1.5 0v-7.5zM14.25 9a.75.75 0 0 1 .75.75v7.5a.75.75 0 1 1-1.5 0v-7.5a.75.75 0 0 1 .75-.75zm-7.516 9.467a2.25 2.25 0 0 0 2.24 2.033h6.053a2.25 2.25 0 0 0 2.239-2.033L18.424 6.5H5.576l1.158 11.967z" fill="#c5603f"/></svg>