<svg xmlns="http://www.w3.org/2000/svg" height="100%" stroke-miterlimit="10" viewBox="0 0 24 24" width="100%" fill-rule="nonzero" stroke-linecap="round" stroke-linejoin="round" xmlns:v="https://vecta.io/nano"><path d="M9 1.75a.75.75 0 0 1 1.5 0v1.265a1.99 1.99 0 0 1 1.235.578l3.536 3.536a2 2 0 0 1 0 2.828L11.028 14.2a2 2 0 0 1-2.828 0l-3.536-3.536a2 2 0 0 1 0-2.828l4.243-4.243L9 3.506V1.75zm0 4.5v-.629L6.111 8.511h8.245a.5.5 0 0 0-.145-.321l-3.536-3.536a.5.5 0 0 0-.175-.113v1.71a.75.75 0 0 1-1.5 0zm-2.868 3.761l3.128 3.128a.5.5 0 0 0 .707 0l3.128-3.128H6.132zM6.586 14H4.5A2.5 2.5 0 0 0 2 16.5v3A2.5 2.5 0 0 0 4.5 22h15a2.5 2.5 0 0 0 2.5-2.5v-3a2.5 2.5 0 0 0-2.016-2.453l.016.328c0 .401-.065.799-.189 1.175a1 1 0 0 1 .689.95v3a1 1 0 0 1-1 1h-15a1 1 0 0 1-1-1v-3a1 1 0 0 1 1-1h3.835c-.305-.144-.59-.341-.842-.593L6.586 14zm7.414.375c0-.493.154-.972.342-1.381.191-.415.438-.806.674-1.134s.473-.613.649-.811l.3-.323.005-.006a.75.75 0 0 1 1.061 0l.305.328.649.811c.236.329.483.719.674 1.134.188.409.342.888.342 1.381C19 15.765 17.971 17 16.5 17S14 15.765 14 14.375zm2.766-1.641l-.266-.35-.266.35c-.202.281-.392.586-.529.885-.14.306-.205.561-.205.755 0 .691.481 1.125 1 1.125s1-.434 1-1.125c0-.194-.065-.45-.205-.755-.137-.3-.328-.604-.529-.885z" fill="#c5603f"/></svg>