<svg xmlns="http://www.w3.org/2000/svg" height="100%" stroke-miterlimit="10" viewBox="0 0 24 24" width="100%" fill-rule="nonzero" stroke-linecap="round" stroke-linejoin="round" xmlns:v="https://vecta.io/nano"><path d="M3.839 5.858c2.941-3.916 9.03-5.055 13.364-2.36 4.28 2.661 5.854 7.777 4.101 12.577-1.655 4.533-6.016 6.328-9.16 4.048-1.177-.854-1.634-1.925-1.854-3.664l-.105-.988-.045-.397c-.123-.934-.311-1.352-.704-1.572-.536-.299-.892-.306-1.595-.033l-.351.146-.179.078c-1.014.44-1.688.595-2.541.416l-.2-.047-.164-.047c-2.789-.864-3.202-4.647-.565-8.158zm.984 6.716l.123.036.134.031c.439.087.814.014 1.437-.242l.602-.257c1.202-.493 1.985-.541 3.045.05.918.511 1.275 1.298 1.458 2.66l.053.459.054.532.047.422c.172 1.361.485 2.09 1.248 2.644 2.275 1.65 5.534.308 6.87-3.349 1.516-4.152.174-8.515-3.484-10.789-3.674-2.284-8.898-1.307-11.372 1.987-2.075 2.762-1.82 5.28-.215 5.816zm11.225-1.994a1.25 1.25 0 0 1 2.415-.647 1.25 1.25 0 0 1-2.415.647zm.495 3.489a1.25 1.25 0 1 1 2.415-.647 1.25 1.25 0 1 1-2.415.647zm-2.473-6.491a1.25 1.25 0 0 1 2.415-.647 1.25 1.25 0 0 1-2.415.647zm-.029 8.998a1.25 1.25 0 1 1 2.415-.647 1.25 1.25 0 1 1-2.415.647zm-3.497-9.97a1.25 1.25 0 1 1 2.415-.647 1.25 1.25 0 1 1-2.415.647z" fill="#c5603f"/></svg>