<svg xmlns="http://www.w3.org/2000/svg" height="100%" stroke-miterlimit="10" viewBox="0 0 28 28" width="100%" fill-rule="nonzero" stroke-linecap="round" stroke-linejoin="round" xmlns:v="https://vecta.io/nano"><path d="M24.78 4.28A.75.75 0 0 0 23.72 3.22L17 9.939V3.75a.75.75 0 1 0-1.5 0v8a.75.75 0 0 0 .75.75h8a.75.75 0 1 0 0-1.5h-6.189l6.72-6.72zM4.5 6.75V14h6.75A2.75 2.75 0 0 1 14 16.75v6.75h7.25a2.25 2.25 0 0 0 2.25-2.25v-5a.75.75 0 1 1 1.5 0v5A3.75 3.75 0 0 1 21.25 25H6.75A3.75 3.75 0 0 1 3 21.25V6.75A3.75 3.75 0 0 1 6.75 3h5a.75.75 0 1 1 0 1.5h-5A2.25 2.25 0 0 0 4.5 6.75zm0 8.75v5.75a2.25 2.25 0 0 0 2.25 2.25h5.75v-6.75a1.25 1.25 0 0 0-1.25-1.25H4.5z" fill="#c5603f"/></svg>