<svg xmlns="http://www.w3.org/2000/svg" height="100%" stroke-miterlimit="10" viewBox="0 0 24 24" width="100%" fill-rule="nonzero" stroke-linecap="round" stroke-linejoin="round" xmlns:v="https://vecta.io/nano"><path d="M15.87 2.669l4.969 4.969a2.25 2.25 0 0 1 0 3.182L12.156 19.5h6.098a.75.75 0 0 1 .743.648l.007.102a.75.75 0 0 1-.648.743l-.102.007-8.41.001c-.616.034-1.244-.185-1.714-.656l-4.969-4.969a2.25 2.25 0 0 1 0-3.182l9.526-9.526a2.25 2.25 0 0 1 3.182 0zM5.708 11.768l-1.486 1.488a.75.75 0 0 0 0 1.061l4.969 4.969c.146.146.338.22.53.22l.029-.005.038.002c.169-.015.334-.087.463-.217l1.486-1.487-6.029-6.03zm8.04-8.038l-6.979 6.977 6.029 6.03 6.979-6.978a.75.75 0 0 0 0-1.061l-4.968-4.969a.75.75 0 0 0-1.061 0z" fill="#c5603f"/></svg>