<svg xmlns="http://www.w3.org/2000/svg" height="100%" stroke-miterlimit="10" viewBox="0 0 24 24" width="100%" fill-rule="nonzero" stroke-linecap="round" stroke-linejoin="round" xmlns:v="https://vecta.io/nano"><path d="M4.5 6.25A1.75 1.75 0 0 1 6.25 4.5h4a.75.75 0 1 0 0-1.5h-4A3.25 3.25 0 0 0 3 6.25v11.5A3.25 3.25 0 0 0 6.25 21h11.5A3.25 3.25 0 0 0 21 17.75v-4a.75.75 0 1 0-1.5 0v4a1.75 1.75 0 0 1-1.75 1.75H12v-4.75A2.75 2.75 0 0 0 9.25 12H4.5V6.25zm0 7.25h4.75a1.25 1.25 0 0 1 1.25 1.25v4.75H6.25a1.75 1.75 0 0 1-1.75-1.75V13.5zM13 3.75a.75.75 0 0 1 .75-.75h6.5a.75.75 0 0 1 .75.75v6.5a.75.75 0 1 1-1.5 0V5.561l-5.22 5.22A.75.75 0 1 1 13.22 9.72l5.22-5.22h-4.69a.75.75 0 0 1-.75-.75z" fill="#c5603f"/></svg>