<svg xmlns="http://www.w3.org/2000/svg" height="100%" stroke-miterlimit="10" viewBox="0 0 24 24" width="100%" fill-rule="nonzero" stroke-linecap="round" stroke-linejoin="round" xmlns:v="https://vecta.io/nano"><path d="M21.778 2.222a.75.75 0 0 1 .073.977l-.073.084-6.223 6.224 5.693.001a.75.75 0 0 1 .743.648l.007.102a.75.75 0 0 1-.648.743l-.102.007-7.55-.002-.015-.001c-.068-.005-.134-.02-.195-.042l-.098-.046c-.205-.11-.352-.314-.386-.554l-.007-.105V2.753a.75.75 0 0 1 1.493-.102l.007.102v5.691l6.222-6.222a.75.75 0 0 1 1.06 0zM11.003 13.754v7.504a.75.75 0 0 1-1.493.102l-.007-.102v-5.695L3.28 21.779a.75.75 0 0 1-1.133-.976l.073-.084 6.22-6.214H2.751a.75.75 0 0 1-.743-.648l-.007-.102a.75.75 0 0 1 .75-.75l7.554.002.073.009.098.023.053.019.086.041.089.058c.056.042.106.092.148.148l.067.106.041.093.021.071.011.055.006.058.001-.008.004.077z" fill="#c5603f"/></svg>