<svg xmlns="http://www.w3.org/2000/svg" width="20" height="20" fill="none" xmlns:v="https://vecta.io/nano"><path d="M17 6.125v2.91A3.53 3.53 0 0 0 16.5 9H16V6.125c.003-.132-.021-.263-.071-.385s-.124-.233-.218-.326l-2.125-2.125A.96.96 0 0 0 13 3.008V5.5c.001.199-.039.395-.117.578s-.184.34-.321.477a1.6 1.6 0 0 1-.484.328c-.181.082-.379.122-.578.117h-4c-.199.001-.395-.039-.578-.117s-.34-.184-.477-.321a1.6 1.6 0 0 1-.328-.484C6.035 5.897 5.995 5.699 6 5.5V3H5a.97.97 0 0 0-.391.078 1.01 1.01 0 0 0-.312.211 1.08 1.08 0 0 0-.219.32c-.056.122-.083.256-.078.391v10a.97.97 0 0 0 .078.391c.052.118.123.226.211.32s.194.165.313.211A1.19 1.19 0 0 0 5 15v-4.5c-.001-.199.039-.395.117-.578s.184-.34.321-.477a1.6 1.6 0 0 1 .484-.328c.181-.082.379-.122.578-.117h5.992a3.49 3.49 0 0 0-2.441 1H6.5c-.132.001-.259.054-.352.148s-.147.22-.148.352V15h3v1H5c-.261.001-.519-.052-.758-.156a2.2 2.2 0 0 1-.64-.422 1.9 1.9 0 0 1-.438-.617A1.96 1.96 0 0 1 3 14.039V4c-.001-.261.052-.519.156-.758a2.2 2.2 0 0 1 .422-.642 1.9 1.9 0 0 1 .622-.436A1.96 1.96 0 0 1 4.961 2h7.914c.262-.001.523.049.766.148a1.88 1.88 0 0 1 .648.438l2.125 2.125c.186.185.332.405.43.648s.152.503.156.766zM7 3v2.5c.001.132.054.259.148.352s.22.147.352.148h4c.132-.001.259-.054.352-.148s.147-.22.148-.352V3H7zm3 9.5a2.5 2.5 0 0 1 2.5-2.5h4a2.5 2.5 0 0 1 2.5 2.5v4a2.49 2.49 0 0 1-.414 1.379l-3.025-3.025a1.5 1.5 0 0 0-2.121 0l-3.025 3.025A2.49 2.49 0 0 1 10 16.5v-4zm7 .25a.75.75 0 1 0-1.5 0 .75.75 0 1 0 1.5 0zm-5.879 5.836A2.49 2.49 0 0 0 12.5 19h4a2.49 2.49 0 0 0 1.379-.414l-3.025-3.025a.5.5 0 0 0-.707 0l-3.025 3.025z" fill="#c5603f"/></svg>