<svg xmlns="http://www.w3.org/2000/svg" height="32" width="32" xmlns:v="https://vecta.io/nano"><defs><clipPath id="A"><path d="M1 5h22v17H1z"/></clipPath><clipPath id="B"><path d="M0 0h24v24H0z"/></clipPath></defs><g clip-path="url(#A)" transform="matrix(1.333333 0 0 -1.333333 0 32)"><g clip-path="url(#B)"><path d="M1.963 7.284C0 0 22.037 7.284 22.037 7.284c.449 0 .814-.364.814-.814 0-.412-.306-.753-.704-.807l-.11-.007H1.963c-.45 0-.814.364-.814.814 0 .412.306.753.703.807l.11.007h20.074S0 0 1.963 7.284zm16.82 14.265a1.9 1.9 0 0 0 1.899-1.899v-2.661-7.264a1.9 1.9 0 0 0-1.899-1.899h-3.498H5.218a1.9 1.9 0 0 0-1.899 1.899v9.925a1.9 1.9 0 0 0 1.899 1.899h13.565zm0-1.628H5.218c-.15 0-.271-.121-.271-.271V9.725a.27.27 0 0 1 .271-.271h13.565a.27.27 0 0 1 .271.271v9.925c0 .15-.271.271-.271.271z" fill="#c5603f"/><path d="M10.15 14.492c-.091 0-.165-.074-.165-.165v-.988c0-.091.074-.165.165-.165s.165.074.165.165v.165h.164c.273 0 .494.221.494.494s-.221.494-.494.494h-.329zm.329-.659h-.164v.33h.164c.091 0 .165-.074.165-.165s-.074-.165-.165-.165zm2.141.495c0 .091.074.165.165.165h.496c.091 0 .165-.074.165-.165s-.074-.165-.165-.165h-.331v-.33h.332c.091 0 .165-.074.165-.165s-.074-.165-.165-.165h-.332v-.164c0-.091-.073-.165-.164-.165s-.165.073-.165.164l-.001.329h0l.001.66zm-1.152.165h.164a.66.66 0 0 0 .659-.659.66.66 0 0 0-.659-.659h-.164c-.091 0-.165.074-.165.165v.988c0 .091.074.165.165.165zm.165-.988a.33.33 0 0 1 .329.329.33.33 0 0 1-.329.329v-.659zm0 2.636v1.977H9.655a.66.66 0 0 1-.659-.659v-2.197c-.195-.093-.329-.291-.329-.521v-1.812c0-.23.135-.429.329-.521v-.22a.66.66 0 0 1 .659-.659h3.953a.66.66 0 0 1 .659.659v.22c.195.093.329.291.329.521v1.812c0 .23-.135.429-.329.521v.22H12.29a.66.66 0 0 0-.659.659zm-2.389-1.318h4.777c.046 0 .082-.037.082-.082v-1.812c0-.046-.037-.082-.082-.082H9.243c-.045 0-.082.037-.082.082v1.812c0 .046.037.082.082.082zm2.883 1.318v1.812l1.098-1.098.879-.879H12.29c-.091 0-.165.074-.165.165z" fill="#c5603f"/><path d="M13.778 13.372c-.109.085-.267.007-.267-.131v-1.877c0-.157.198-.226.295-.103l.463.585c.035.044.087.069.143.069h.756c.158 0 .226.199.102.296l-1.491 1.16z" fill="#fcf7f2"/></g></g></svg>