<svg xmlns="http://www.w3.org/2000/svg" height="100%" stroke-miterlimit="10" viewBox="0 0 24 24" width="100%" fill-rule="nonzero" stroke-linecap="round" stroke-linejoin="round" xmlns:v="https://vecta.io/nano"><path d="M7.503 13.002a.5.5 0 0 0-.5.5v3a.5.5 0 0 0 1 0v-.5H8.5a1.5 1.5 0 1 0 0-3h-.997zm.997 2h-.497v-1H8.5a.5.5 0 1 1 0 1zm6.498-1.501a.5.5 0 0 1 .5-.499h1.505a.5.5 0 1 1 0 1h-1.006l-.001 1.002h1.007a.5.5 0 0 1 0 1h-1.006l.001.497a.5.5 0 1 1-1 .002l-.003-.998v-.002l.003-2.002zm-3.498-.499h.498a2 2 0 0 1 0 4H11.5a.5.5 0 0 1-.5-.5v-3a.5.5 0 0 1 .5-.5zm.5 3a1 1 0 0 0 0-2v2zM12 8V2H6a2 2 0 0 0-2 2v6.668a1.75 1.75 0 0 0-1 1.582v5.5a1.75 1.75 0 0 0 1 1.582V20a2 2 0 0 0 2 2h12a2 2 0 0 0 2-2v-.668a1.75 1.75 0 0 0 1-1.582v-5.5a1.75 1.75 0 0 0-1-1.582V10h-6a2 2 0 0 1-2-2zm-7.25 4h14.5a.25.25 0 0 1 .25.25v5.5a.25.25 0 0 1-.25.25H4.75a.25.25 0 0 1-.25-.25v-5.5a.25.25 0 0 1 .25-.25zm8.75-4V2.5l6 6H14a.5.5 0 0 1-.5-.5z" fill="#c5603f"/><path d="M18.516 16.402c-.33-.257-.811-.022-.811.397v5.698c0 .476.601.685.897.312l1.404-1.776c.105-.133.265-.21.434-.21h2.296c.478 0 .686-.605.308-.899l-4.527-3.521z" fill="#fcf7f2"/></svg>