<svg xmlns="http://www.w3.org/2000/svg" width="20" height="20" fill="none" xmlns:v="https://vecta.io/nano"><path d="M8.072 12.442a.5.5 0 0 0 .989.145L9.148 12h1.239l-.065.442a.5.5 0 0 0 .989.145l.086-.587H12a.5.5 0 1 0 0-1h-.456l.22-1.5h.736a.5.5 0 1 0 0-1h-.589l.136-.93a.5.5 0 1 0-.989-.145L10.9 8.5H9.66l.136-.93a.5.5 0 1 0-.989-.145L8.65 8.5H8a.5.5 0 1 0 0 1h.503l-.22 1.5H7.5a.5.5 0 1 0 0 1h.637l-.065.442zM10.753 9.5l-.22 1.5H9.294l.22-1.5h1.239zM6 2a2 2 0 0 0-2 2v12a2 2 0 0 0 2 2h8a2 2 0 0 0 2-2V4a2 2 0 0 0-2-2H6zm0 1h8a1 1 0 0 1 1 1v12a1 1 0 0 1-1 1H6a1 1 0 0 1-1-1V4a1 1 0 0 1 1-1z" fill="#c5603f"/></svg>