<svg xmlns="http://www.w3.org/2000/svg" width="20" height="20" fill="none" xmlns:v="https://vecta.io/nano"><path d="M10.753 9.502l-.22 1.5H9.294l.22-1.5h1.239zM5.5 2A1.5 1.5 0 0 0 4 3.5v13A1.5 1.5 0 0 0 5.5 18h9a1.5 1.5 0 0 0 1.5-1.5v-13A1.5 1.5 0 0 0 14.5 2h-9zm2.572 10.444l.065-.442H7.5a.5.5 0 1 1 0-1h.784l.22-1.5H8a.5.5 0 1 1 0-1h.65l.157-1.075a.5.5 0 1 1 .989.145l-.136.93H10.9l.157-1.075a.5.5 0 1 1 .989.145l-.136.93h.589a.5.5 0 1 1 0 1h-.736l-.22 1.5H12a.5.5 0 1 1 0 1h-.602l-.086.587a.5.5 0 1 1-.989-.145l.065-.442H9.148l-.086.587a.5.5 0 0 1-.989-.145z" fill="#c5603f"/></svg>