<svg xmlns="http://www.w3.org/2000/svg" height="100%" stroke-miterlimit="10" viewBox="0 0 32 32" width="100%" fill-rule="nonzero" stroke-linecap="round" stroke-linejoin="round" xmlns:v="https://vecta.io/nano"><path d="M21.65 3.434a4.89 4.89 0 0 1 6.914 0 4.89 4.89 0 0 1 0 6.914l-.901.901.276.276a3.5 3.5 0 0 1 0 4.95l-2.232 2.232a1 1 0 0 1-1.414-1.414l2.232-2.232a1.5 1.5 0 0 0 0-2.121l-.276-.276-14.979 14.98a3.7 3.7 0 0 1-1.841 1.002l-6.22 1.333a1 1 0 0 1-1.187-1.187l1.333-6.22a3.7 3.7 0 0 1 1.001-1.841L21.65 3.434z" fill="#c5603f"/></svg>