<svg xmlns="http://www.w3.org/2000/svg" height="100%" stroke-miterlimit="10" viewBox="0 0 24 24" width="100%" fill-rule="nonzero" stroke-linecap="round" stroke-linejoin="round" xmlns:v="https://vecta.io/nano"><path d="M20.952 3.047a3.58 3.58 0 0 0-5.061 0L3.941 14.999c-.406.406-.692.918-.825 1.477L2.02 21.077a.75.75 0 0 0 .903.903l4.601-1.096c.559-.133 1.07-.419 1.477-.825L19 10.06a1.75 1.75 0 0 1-.005 2.47l-1.783 1.783a.75.75 0 0 0 1.061 1.061l1.784-1.783A3.25 3.25 0 0 0 20.06 9l.892-.892a3.58 3.58 0 0 0 0-5.061zm-4 1.061a2.08 2.08 0 0 1 2.939 0 2.08 2.08 0 0 1 0 2.939L7.941 18.999c-.21.21-.475.358-.764.427l-3.416.813.813-3.416c.069-.289.216-.553.427-.763l11.95-11.951z" fill="#c5603f"/></svg>