<svg xmlns="http://www.w3.org/2000/svg" height="100%" stroke-miterlimit="10" viewBox="0 0 512 512" width="100%" fill-rule="nonzero" stroke-linecap="round" stroke-linejoin="round" xmlns:v="https://vecta.io/nano"><clipPath id="A"><path d="M0 0h512v512H0z"/></clipPath><g clip-path="url(#A)"><path d="M243.531 1l.651 69.486c.161 7.479 1.382 15.319 4.003 22.284 6.258 16.625 18.564 27.232 36.281 30.042 8.902 1.412 18.114 1.059 27.189 1.144l50.113.044v95.874c-3.264-.297-6.438-.833-9.614-.835-26.539-.018-51.806 5.655-75.034 18.575-9.962 5.541-18.919 12.868-28.5 19.128-2.025 1.324-4.775 2.159-7.194 2.166l-141.479.093c-6.272 0-9.952 3.156-9.947 8.512.005 5.366 3.665 8.486 9.973 8.486l129.066.001c-4.352 6.577-8.752 12.68-12.554 19.136-3.497 5.937-6.635 12.131-9.365 18.457-1.359 3.149-2.717 4.511-6.337 4.495l-100.985-.087c-6.849.001-9.855 2.667-9.798 8.664.046 4.828 4.237 8.327 10.084 8.329l93.486.006h5.812c-9.001 34.589-5.951 68.034 7.336 101h-6.963c-44.994 0-89.988.183-134.98-.107-14.274-.091-25.236-6.975-32.83-19.19-4.324-6.955-6.045-14.342-6.036-22.574l.179-354.447c.019-14.18 7.039-25.107 18.95-32.576 3.851-2.415 8.465-3.613 12.846-5.737L243.531 1M165.5 201h-7.989c-19.471 0-38.943-.022-58.415.018-3.977.008-8.634 3.599-9.094 6.789-.654 4.539 1.428 8.745 5.31 9.877 2.614.763 5.409 1.256 8.125 1.262l107.344.054c.832 0 1.679.097 2.494-.021 8.91-1.293 12.363-6.874 9.71-12.695-1.875-4.116-5.386-5.288-9.554-5.286L165.5 201z" fill="#fcf7f2"/><path d="M331.469 513c-9.036-2.336-17.693-4.389-26.154-7.063-24.567-7.762-44.754-22.392-61.313-41.695-15.426-17.983-25.584-39.113-29.695-62.427-2.27-12.876-2.975-26.365-2.005-39.4 1.631-21.912 8.913-42.312 20.745-61.083 10.278-16.305 23.245-30.041 39.066-40.706 16.651-11.224 34.985-19.179 55.18-21.525 10.759-1.25 21.726-2.62 32.449-1.849 21.058 1.513 41.021 7.335 59.477 18.227 10.77 6.357 20.556 13.781 29.26 22.594 18.475 18.704 30.428 41.056 36.567 66.628 3.387 14.11 3.972 28.491 2.737 42.69-2.248 25.843-11.368 49.361-26.937 70.352-12.886 17.374-28.915 31.052-48.07 40.738-14.539 7.352-29.951 12.657-46.627 14.123-11.503.396-22.857.396-34.68.396m65.562-151.638l13.784 14.881c3.457 3.566 8.31 3.669 11.84.586 4.004-3.498 4.842-7.27 1.313-11.449-7.736-9.163-15.812-18.05-23.99-26.827l-37.194-39.285c-12.805-13.562-12.823-13.592-25.535-.014L309.187 329.3l-32.267 34.315c-3.792 4.027-4.062 9.822-.575 13.07 3.675 3.424 8.454 3.114 12.51-1.051l25.49-26.528c5.732-6.109 11.139-12.52 16.8-18.697 2.81-3.066 5.864-5.909 8.808-8.853l1.047.728v5.342 119.949c0 1.166-.114 2.346.019 3.497 1.138 9.797 8.492 13.464 14.013 8.667 2.461-2.139 3.782-6.815 3.805-10.35L359 327.441v-5.242l1.182-.611 36.849 39.774z" fill="#c5603f"/><path d="M287.781 40.283l61.94 65.716c-21.656 0-42.113.771-62.472-.307-11.079-.587-20.718-8.795-24.166-22.004-.811-3.107-1.02-6.441-1.037-9.673L262 20.068v-4.808l-1.062 1.478 26.843 23.545z" fill="#fcf7f2"/><path d="M397 361.003l-36.818-39.415-1.182.611v5.242l-.163 121.948c-.023 3.535-1.344 8.211-3.805 10.35-5.521 4.797-12.875 1.13-14.013-8.667-.133-1.151-.019-2.331-.019-3.497V327.626v-5.342l-1.047-.728c-2.944 2.944-5.998 5.787-8.808 8.853l-16.8 18.697-25.49 26.528c-4.056 4.165-8.835 4.475-12.51 1.051-3.487-3.248-3.217-9.043.575-13.07l32.267-34.315 28.062-30.046c12.712-13.578 12.73-13.548 25.535.014l37.194 39.285c8.178 8.777 16.254 17.664 23.99 26.827 3.529 4.179 2.691 7.951-1.313 11.449-3.53 3.083-8.383 2.98-11.84-.586-4.705-4.853-9.199-9.911-13.815-15.24z" fill="#fff"/></g></svg>