<svg xmlns="http://www.w3.org/2000/svg" height="100%" stroke-miterlimit="10" viewBox="0 0 24 24" width="100%" fill-rule="nonzero" stroke-linecap="round" stroke-linejoin="round" xmlns:v="https://vecta.io/nano"><path d="M12.75 9.25a.75.75 0 1 1 0 1.5h-5.5a.75.75 0 1 1 0-1.5h5.5zm4.5.75a7.25 7.25 0 1 0-14.5 0A7.25 7.25 0 0 0 10 17.25a7.22 7.22 0 0 0 4.569-1.62l4.901 4.901.084.073a.75.75 0 0 0 .977-1.133l-4.901-4.901A7.22 7.22 0 0 0 17.25 10zm-13 0a5.75 5.75 0 1 1 11.5 0 5.75 5.75 0 1 1-11.5 0z" fill="#c5603f"/></svg>