<svg xmlns="http://www.w3.org/2000/svg" height="100%" stroke-miterlimit="10" viewBox="0 0 20 20" width="100%" fill-rule="nonzero" stroke-linecap="round" stroke-linejoin="round" xmlns:v="https://vecta.io/nano"><path d="M11.5 8.5A.5.5 0 0 0 11 8H9V6a.5.5 0 1 0-1 0v2H6a.5.5 0 1 0 0 1h2v2a.5.5 0 1 0 1 0V9h2a.5.5 0 0 0 .5-.5zM8.5 3A5.5 5.5 0 0 1 14 8.5c0 1.339-.478 2.566-1.273 3.52l4.127 4.127a.5.5 0 0 1-.638.765l-.069-.058-4.127-4.127C11.066 13.522 9.839 14 8.5 14a5.5 5.5 0 1 1 0-11zm0 1a4.5 4.5 0 1 0 0 9 4.5 4.5 0 1 0 0-9z" fill="#c5603f"/></svg>